HIERARCHY
ROOT Hips
{
	OFFSET 0.000000 0.000000 0.000000
	CHANNELS 6 Xposition Yposition Zposition Xrotation Yrotation Zrotation
	JOINT LeftUpLeg_virtual
	{
		OFFSET 0.000000 0.000000 0.000000
		CHANNELS 3 Xrotation Yrotation Zrotation
		JOINT LeftUpLeg
		{
			OFFSET 15.427100 -6.655098 0.678600
			CHANNELS 3 Xrotation Yrotation Zrotation
			JOINT LeftLeg
			{
				OFFSET 4.081073 -39.591068 13.024000
				CHANNELS 3 Xrotation Yrotation Zrotation
				JOINT LeftFoot
				{
					OFFSET -4.081074 -37.707932 -15.979700
					CHANNELS 3 Xrotation Yrotation Zrotation
					JOINT LeftToeBase
					{
						OFFSET 5.346399 -15.068900 20.645000
						CHANNELS 3 Xrotation Yrotation Zrotation
						JOINT LeftToe_End
						{
							OFFSET 2.754700 0.931300 11.300900
							CHANNELS 3 Xrotation Yrotation Zrotation
							End Site
							{
								OFFSET 0 0 0
							}
						}
					}
				}
			}
		}
	}
	JOINT RightUpLeg_virtual
	{
		OFFSET 0.000000 0.000000 0.000000
		CHANNELS 3 Xrotation Yrotation Zrotation
		JOINT RightUpLeg
		{
			OFFSET -15.569500 -6.655098 0.678600
			CHANNELS 3 Xrotation Yrotation Zrotation
			JOINT RightLeg
			{
				OFFSET -4.081825 -39.591045 13.023800
				CHANNELS 3 Xrotation Yrotation Zrotation
				JOINT RightFoot
				{
					OFFSET 4.081824 -37.707954 -15.979600
					CHANNELS 3 Xrotation Yrotation Zrotation
					JOINT RightToeBase
					{
						OFFSET -5.346400 -15.068900 20.645000
						CHANNELS 3 Xrotation Yrotation Zrotation
						JOINT RightToe_End
						{
							OFFSET -2.754700 0.931300 11.300900
							CHANNELS 3 Xrotation Yrotation Zrotation
							End Site
							{
								OFFSET 0 0 0
							}
						}
					}
				}
			}
		}
	}
	JOINT Spine_virtual
	{
		OFFSET 0.000000 0.000000 0.000000
		CHANNELS 3 Xrotation Yrotation Zrotation
		JOINT Spine
		{
			OFFSET -0.279200 12.230698 -2.892100
			CHANNELS 3 Xrotation Yrotation Zrotation
			JOINT Spine1
			{
				OFFSET -0.232667 10.192268 -1.242267
				CHANNELS 3 Xrotation Yrotation Zrotation
				JOINT Spine1_split
				{
					OFFSET -0.232667 10.192268 -1.242267
					CHANNELS 3 Xrotation Yrotation Zrotation
					JOINT Spine2
					{
						OFFSET -0.232667 10.192268 -1.242267
						CHANNELS 3 Xrotation Yrotation Zrotation
						JOINT Neck_virtual
						{
							OFFSET 0.000000 0.000000 0.000000
							CHANNELS 3 Xrotation Yrotation Zrotation
							JOINT Neck
							{
								OFFSET -0.418800 17.814194 8.416900
								CHANNELS 3 Xrotation Yrotation Zrotation
								JOINT Head
								{
									OFFSET 0.000000 7.031097 3.806800
									CHANNELS 3 Xrotation Yrotation Zrotation
									JOINT HeadTop_End
									{
										OFFSET 0.000000 24.646606 12.978600
										CHANNELS 3 Xrotation Yrotation Zrotation
										End Site
										{
											OFFSET 0 0 0
										}
									}
								}
							}
						}
						JOINT LeftShoulder_virtual
						{
							OFFSET 0.000000 0.000000 0.000000
							CHANNELS 3 Xrotation Yrotation Zrotation
							JOINT LeftShoulder
							{
								OFFSET 8.476499 7.247704 -3.868750
								CHANNELS 3 Xrotation Yrotation Zrotation
								JOINT LeftShoulder_split
								{
									OFFSET 8.476499 7.247704 -3.868750
									CHANNELS 3 Xrotation Yrotation Zrotation
									JOINT LeftArm
									{
										OFFSET 9.308998 -2.777710 0.208600
										CHANNELS 3 Xrotation Yrotation Zrotation
										JOINT LeftForeArm
										{
											OFFSET 29.972298 0.000000 0.000000
											CHANNELS 3 Xrotation Yrotation Zrotation
											JOINT LeftHand
											{
												OFFSET 26.026505 0.000000 0.000000
												CHANNELS 3 Xrotation Yrotation Zrotation
												End Site
												{
													OFFSET 0 0 0
												}
											}
										}
									}
								}
							}
						}
						JOINT RightShoulder_virtual
						{
							OFFSET 0.000000 0.000000 0.000000
							CHANNELS 3 Xrotation Yrotation Zrotation
							JOINT RightShoulder
							{
								OFFSET -7.570500 7.247704 -3.868750
								CHANNELS 3 Xrotation Yrotation Zrotation
								JOINT RightShoulder_split
								{
									OFFSET -7.570500 7.247704 -3.868750
									CHANNELS 3 Xrotation Yrotation Zrotation
									JOINT RightArm
									{
										OFFSET -9.308998 -2.777710 0.208500
										CHANNELS 3 Xrotation Yrotation Zrotation
										JOINT RightForeArm
										{
											OFFSET -29.972300 0.000000 0.000000
											CHANNELS 3 Xrotation Yrotation Zrotation
											JOINT RightHand
											{
												OFFSET -26.026505 0.000000 0.000000
												CHANNELS 3 Xrotation Yrotation Zrotation
												End Site
												{
													OFFSET 0 0 0
												}
											}
										}
									}
								}
							}
						}
					}
				}
			}
		}
	}
}
MOTION
Frames: 4
Frame Time: 0.03333333
0.743699 90.640579 -47.511299 0.000000 0.000000 0.000000 171.556921 -68.077342 173.417629 -27.434047 10.491361 16.238087 35.240849 0.977713 -1.199028 -3.154503 -2.554444 1.279618 -0.560373 6.318442 -7.791007 0.000000 0.000000 0.000000 170.858534 -65.674188 173.364968 -8.924214 -10.873671 5.993589 17.829294 5.176089 -2.879545 -9.050569 3.488300 -4.379096 -2.523029 -7.661154 -1.672491 0.000000 0.000000 0.000000 169.596425 -67.572154 171.377929 3.864319 3.012310 3.893191 -3.279845 1.447350 -1.895104 0.781462 -2.562291 0.480747 0.000000 0.000000 0.000000 -4.387165 1.818352 -1.802504 1.872302 18.411087 7.564580 0.715117 32.076095 -14.763801 0.000000 0.000000 0.000000 -4.966250 2.185090 -1.917606 1.208091 -0.002664 2.240265 1.194496 -0.616572 -1.790643 12.643524 -1.416613 -66.483429 8.003892 -20.631812 -8.287444 0.000000 0.000000 0.000000 -4.599334 1.946206 -2.520442 2.499730 -5.150906 18.388107 -5.318238 -1.646265 -1.404039 11.500916 31.481483 53.908105 15.809600 28.275023 -0.249813 0.000000 0.000000 0.000000 
-0.419085 91.028519 -49.305969 0.000000 0.000000 0.000000 171.956624 -62.452647 173.720233 -29.428659 2.981408 11.491482 34.749079 1.242147 -0.241368 -0.672258 -2.111273 0.500086 -1.648586 7.009456 -8.163246 0.000000 0.000000 0.000000 171.341702 -59.394765 173.907640 -8.717675 -8.083858 7.780438 17.732542 7.863598 -1.661691 -8.464805 3.228251 -5.985552 -2.531818 -7.478480 -1.858542 0.000000 0.000000 0.000000 171.047389 -61.468738 172.503367 4.130785 3.560943 3.760430 -3.223226 1.941776 -1.997296 0.811693 -2.418106 0.615338 0.000000 0.000000 0.000000 -4.316999 2.276526 -2.016504 1.845888 16.848605 7.513791 0.303856 29.198980 -13.687706 0.000000 0.000000 0.000000 -5.007449 2.654801 -2.047789 1.051844 0.156889 2.331530 1.398224 -0.897373 -1.630868 14.197489 -0.654214 -67.578889 9.191339 -19.897697 -8.523426 0.000000 0.000000 0.000000 -4.515636 2.412662 -2.697822 2.521321 -5.556806 18.240910 -5.092720 -1.717205 -0.959126 10.360057 33.528531 53.963504 16.121285 27.465900 -0.849648 0.000000 0.000000 0.000000 
-1.742158 91.252342 -51.270844 0.000000 0.000000 0.000000 172.112666 -56.715015 173.802647 -31.959435 -3.634850 7.015295 32.709267 0.956805 0.830031 1.831383 -2.020674 -1.341743 -3.786557 7.692447 -8.473188 0.000000 0.000000 0.000000 171.814556 -53.107388 174.470543 -8.290019 -5.384458 9.561399 18.368634 10.233702 -0.583872 -8.278929 2.863686 -7.962150 -2.125313 -7.248639 -1.894886 0.000000 0.000000 0.000000 172.150779 -55.355804 173.337838 4.378508 3.981186 3.392499 -3.051827 2.313806 -1.919265 0.780858 -2.065297 0.678566 0.000000 0.000000 0.000000 -4.127544 2.622702 -2.039922 1.853132 15.029772 7.055234 -0.403920 25.439419 -12.070438 0.000000 0.000000 0.000000 -4.961862 3.005516 -1.963158 0.890315 0.345750 2.271669 1.611018 -1.212849 -1.453129 15.445146 -0.111094 -68.744406 10.067818 -18.216142 -8.924210 0.000000 0.000000 0.000000 -4.347284 2.748432 -2.648944 2.590970 -5.970411 17.957576 -4.871779 -1.654640 -0.507683 8.996691 35.765493 54.326351 16.165239 26.304949 -1.350161 0.000000 0.000000 0.000000 
-3.170821 91.154938 -53.330498 0.000000 0.000000 0.000000 172.331875 -50.835930 174.040774 -34.863898 -8.807622 3.300966 29.576352 0.267511 1.730396 4.470454 -2.138935 -3.828512 -5.431953 8.282532 -9.049842 0.000000 0.000000 0.000000 172.332530 -46.933536 175.069510 -7.923023 -2.992158 11.132330 19.926116 12.464955 0.207220 -7.971845 2.549674 -9.930839 -2.124665 -6.965942 -2.056853 0.000000 0.000000 0.000000 173.098481 -49.529967 174.140222 4.702131 4.248020 2.837821 -2.772073 2.544321 -1.680283 0.860052 -1.581134 0.616506 0.000000 0.000000 0.000000 -3.823739 2.834930 -1.882427 1.900849 12.999107 6.253213 -1.225490 20.976684 -10.110202 0.000000 0.000000 0.000000 -4.824147 3.224147 -1.688523 0.744217 0.633428 2.051660 1.893208 -1.598153 -1.261730 16.386239 0.323988 -69.847242 10.554773 -16.211925 -9.443059 0.000000 0.000000 0.000000 -4.114358 2.935531 -2.408778 2.710092 -6.381349 17.534906 -4.594293 -1.477735 -0.054770 7.462648 38.040254 55.061666 15.986237 25.127335 -1.798692 0.000000 0.000000 0.000000 
